P3
75 75
255
0 0 0 0 0 0 0 0 0 0 0 0 0 0 0 0 0 0 0 0 0 0 0 0 0 0 0 0 0 0 0 0 0 0 0 0 0 0 0 0 0 0 0 0 0 0 0 0 0 0 0 0 0 0 0 0 0 0 0 0 0 0 0 0 0 0 0 0 0 0 0 0 1 1 1 0 0 0 54 54 54 89 89 89 61 61 61 55 55 55 52 52 52 40 40 40 22 22 22 0 0 0 33 33 33 94 94 94 92 92 92 87 87 87 137 137 137 194 194 194 184 184 184 83 83 83 46 46 46 77 77 77 87 87 87 58 58 58 30 30 30 4 4 4 0 0 0 0 0 0 0 0 0 0 0 0 0 0 0 0 0 0 0 0 0 0 0 0 0 0 0 0 0 0 0 0 0 0 0 0 0 0 0 0 0 0 0 0 0 0 0 0 0 0 0 0 0 0 0 0 0 0 0 0 0 0 0 0 0 0 0 0 0 0 0 0 1 1 1 12 9 10 21 16 17 
0 0 0 0 0 0 0 0 0 0 0 0 0 0 0 0 0 0 0 0 0 0 0 0 0 0 0 0 0 0 0 0 0 0 0 0 0 0 0 0 0 0 0 0 0 0 0 0 0 0 0 0 0 0 0 0 0 0 0 0 0 0 0 0 0 0 0 0 0 0 0 0 2 2 2 0 0 0 68 68 68 139 139 139 118 118 118 85 85 85 48 48 48 0 0 0 2 2 2 0 0 0 33 33 33 93 93 93 92 92 92 87 87 87 136 136 136 192 192 192 189 189 189 77 77 77 32 32 32 103 103 103 125 125 125 140 140 140 151 151 151 41 41 41 0 0 0 2 2 2 0 0 0 0 0 0 0 0 0 0 0 0 0 0 1 0 0 0 1 1 0 2 2 1 0 0 0 0 0 0 0 0 0 0 0 0 0 0 0 0 0 0 0 0 0 0 0 0 0 0 0 0 0 0 0 0 0 0 0 0 0 0 0 0 0 0 0 0 0 0 0 0 4 3 3 
0 0 0 0 0 0 0 0 0 0 0 0 0 0 0 0 0 0 0 0 0 0 0 0 0 0 0 0 0 0 0 0 0 0 0 0 0 0 0 0 0 0 0 0 0 0 0 0 0 0 0 1 1 1 1 1 1 0 0 0 1 0 0 0 0 0 0 0 0 0 0 0 2 2 2 0 0 0 56 55 56 124 124 124 113 113 113 89 89 89 58 58 58 23 23 23 36 36 36 45 45 45 65 65 65 89 89 89 92 92 92 85 85 85 134 134 134 190 190 190 191 191 191 107 107 107 71 71 71 123 123 123 137 137 137 139 139 139 155 155 155 42 42 42 0 0 0 3 3 3 2 2 2 2 2 2 2 2 2 1 2 2 2 1 1 3 4 5 9 12 16 15 19 24 4 4 5 2 1 1 0 0 0 0 0 0 0 0 0 0 0 0 0 0 0 0 0 0 0 0 0 0 0 0 0 0 0 0 0 0 0 0 0 0 0 0 0 0 0 0 0 0 2 2 2 
0 0 0 0 0 0 0 0 0 0 0 0 0 0 0 0 0 0 0 0 0 0 0 0 0 0 0 0 0 0 0 0 0 0 0 0 0 0 0 0 0 0 0 0 0 0 0 0 0 0 0 0 0 0 0 0 0 2 2 2 5 6 6 7 7 6 8 8 6 11 11 9 19 19 19 19 18 19 67 67 66 121 121 121 105 105 105 88 88 88 64 64 64 36 36 36 54 54 54 61 61 61 74 74 74 93 93 93 92 92 92 93 93 93 143 143 143 189 189 189 195 195 195 118 118 118 79 79 79 111 111 111 125 125 125 134 134 134 144 144 144 126 126 126 90 90 90 5 5 5 0 0 0 0 0 0 0 0 0 0 0 0 4 9 12 40 35 47 109 42 29 118 66 47 7 8 9 0 0 0 1 1 1 0 0 0 0 0 0 0 0 0 1 1 0 0 0 0 0 0 0 0 0 0 0 0 0 0 0 0 0 0 0 0 0 0 0 0 0 0 0 0 1 1 1 
0 0 0 0 0 0 0 0 0 0 0 0 0 0 0 0 0 0 0 0 0 0 0 0 0 0 0 0 0 0 0 0 0 0 0 0 0 0 0 0 0 0 0 0 0 1 1 0 0 0 0 23 23 22 28 27 26 16 15 16 13 14 14 9 10 9 6 8 7 9 10 7 12 13 11 18 19 19 26 26 24 79 78 78 121 121 121 83 83 83 60 60 60 17 17 17 25 25 25 27 27 27 43 43 43 49 49 49 44 44 44 153 153 153 193 193 193 167 167 167 133 133 133 95 95 95 64 64 64 105 105 105 119 119 119 127 127 127 138 138 138 183 183 183 170 170 170 35 35 35 44 44 44 71 70 72 68 67 68 40 37 45 62 34 37 124 23 11 174 47 18 255 140 92 187 100 69 42 23 16 0 1 3 11 11 11 9 9 9 6 5 7 2 2 2 0 0 1 0 0 0 0 0 0 0 0 0 0 0 0 0 0 0 0 0 0 0 0 0 0 0 0 0 0 0 
0 0 0 0 0 0 0 0 0 0 0 0 0 0 0 0 0 0 0 0 0 0 0 0 0 0 0 0 0 0 0 0 0 0 0 0 0 0 0 0 0 0 0 0 0 7 9 8 7 6 6 22 19 16 44 31 24 34 19 14 37 17 12 13 9 6 4 8 6 12 10 6 11 9 5 4 6 5 3 5 0 20 19 14 163 163 162 70 70 70 22 22 22 29 29 29 30 30 30 28 28 28 28 28 28 28 28 28 35 35 35 166 166 166 196 196 196 160 160 160 74 74 74 73 73 73 73 73 73 102 102 102 117 117 117 125 125 125 139 139 139 90 90 90 79 79 79 86 86 87 85 84 88 102 100 101 112 109 117 106 98 103 117 71 63 140 79 65 132 82 71 171 124 101 199 144 115 142 108 90 69 67 68 84 81 87 85 85 87 93 91 89 88 85 87 8 8 8 0 0 0 0 0 0 0 0 0 0 0 0 0 0 0 0 0 0 0 0 0 0 0 0 0 0 0 
0 0 0 0 0 0 0 0 0 0 0 0 0 0 0 0 0 0 0 0 0 0 0 0 0 0 0 0 0 0 0 0 0 0 0 0 0 0 0 0 1 0 0 0 0 25 21 21 25 18 16 38 20 13 61 27 17 54 23 16 57 25 17 35 19 11 24 14 9 35 19 13 14 13 10 15 12 8 18 14 10 15 9 4 71 64 63 73 73 74 9 10 10 27 27 26 31 31 31 31 31 31 33 33 33 35 35 35 35 35 35 127 127 127 189 189 189 156 156 156 71 71 71 75 75 75 71 71 71 97 97 97 94 94 94 91 91 91 93 93 93 62 62 62 83 81 84 61 60 60 114 105 56 126 113 64 101 93 53 0 0 0 86 86 53 23 28 23 44 48 31 109 105 63 77 77 46 45 45 29 16 14 12 129 121 71 121 113 69 32 28 17 71 70 70 25 24 24 0 0 0 1 1 1 0 0 0 0 0 0 0 0 0 0 0 0 0 0 0 0 0 0 0 0 0 
0 0 0 0 0 0 0 0 0 0 0 0 0 0 0 0 0 0 0 0 0 0 0 0 0 0 0 0 0 0 0 0 0 1 1 1 1 1 1 0 0 0 1 1 1 26 14 13 38 17 13 48 22 16 57 26 16 48 21 14 42 20 13 50 24 15 43 21 14 22 14 8 17 14 8 33 18 11 28 14 10 18 14 9 10 8 6 22 22 20 80 80 80 54 54 54 41 41 41 37 37 37 32 32 32 30 30 30 31 31 31 21 21 21 143 143 143 179 179 179 129 129 129 74 74 74 61 61 61 51 51 51 91 91 91 77 77 77 47 47 47 36 36 35 74 74 77 67 66 64 119 117 64 120 119 68 109 108 66 0 0 0 97 98 54 24 22 14 51 49 27 124 120 68 86 83 47 49 47 27 1 1 1 120 117 68 112 108 64 35 36 19 61 62 65 35 33 36 0 0 0 1 1 1 0 0 0 0 0 0 0 0 0 0 0 0 0 0 0 0 0 0 0 0 0 
0 0 0 0 0 0 0 0 0 0 0 0 0 0 0 0 0 0 0 0 0 0 0 0 0 0 0 0 0 0 1 1 1 0 0 0 0 0 0 3 3 3 9 9 9 26 16 16 37 18 15 43 19 15 40 18 12 42 20 13 14 10 7 15 11 7 19 13 9 9 10 7 27 15 11 29 16 10 18 12 9 18 13 9 19 15 12 8 7 4 93 93 92 79 79 80 45 45 45 39 39 39 34 34 34 35 35 35 41 41 41 33 33 33 137 137 137 191 191 191 157 157 157 71 71 71 67 67 67 48 48 48 145 145 145 184 184 184 155 155 155 121 120 121 116 112 122 76 60 60 57 11 6 61 13 14 69 17 11 68 20 19 64 13 9 71 25 23 66 16 16 81 27 18 89 36 23 69 7 4 74 20 19 67 12 11 69 9 8 80 20 12 70 59 59 21 23 25 0 0 0 1 1 2 0 0 0 0 0 0 0 0 0 0 0 0 0 0 0 0 0 0 0 0 0 
0 0 0 0 0 0 0 0 0 0 0 0 0 0 0 0 0 0 0 0 0 0 0 0 0 0 0 0 0 0 2 2 2 59 59 59 49 49 49 28 29 29 29 29 29 25 16 14 48 24 19 81 39 28 67 33 21 43 20 16 25 16 11 16 14 9 16 11 8 10 9 7 8 8 6 13 9 7 12 9 6 21 14 10 33 19 14 15 12 8 17 19 15 52 53 50 48 48 48 40 40 40 41 41 41 41 41 41 45 45 45 57 57 57 142 142 142 194 194 194 153 153 153 65 65 65 58 58 58 52 52 52 144 143 144 184 184 183 187 186 185 133 128 141 84 95 123 95 63 66 155 95 88 170 112 107 129 34 29 171 132 125 135 38 32 159 114 108 160 80 75 131 54 50 145 58 56 120 13 6 170 112 105 133 29 25 147 83 78 154 93 91 63 47 45 20 26 48 8 7 11 0 0 0 0 0 0 0 0 0 0 0 0 0 0 0 0 0 0 0 0 0 0 0 0 
0 0 0 0 0 0 0 0 0 0 0 0 0 0 0 0 0 0 0 0 0 0 0 0 3 3 3 11 11 11 3 3 3 60 60 60 68 68 68 35 36 36 29 27 27 31 17 14 64 28 19 88 36 22 73 29 17 35 13 8 27 16 9 43 20 12 66 28 15 88 44 27 104 49 31 120 55 35 99 43 27 47 21 14 45 22 15 29 18 12 13 15 10 36 36 31 41 41 41 33 33 33 24 24 24 46 46 46 144 144 144 168 168 168 105 105 105 100 100 100 107 107 107 68 68 68 121 121 121 143 143 143 120 121 121 141 140 141 105 104 119 46 56 99 92 108 157 94 74 78 141 103 97 155 111 106 125 61 56 143 100 96 114 10 4 129 80 75 134 47 44 124 67 61 145 67 63 112 27 22 157 106 102 113 6 2 142 94 88 149 104 100 58 47 42 46 58 100 56 64 105 14 16 27 3 2 5 0 0 0 0 0 0 0 0 0 0 0 0 0 0 0 0 0 0 
0 0 0 0 0 0 0 0 0 0 0 0 0 0 0 0 0 0 0 0 0 0 0 0 4 4 4 83 83 83 74 74 74 27 27 27 19 19 19 30 30 30 27 25 25 64 33 22 148 89 60 164 107 79 168 121 92 159 113 84 129 77 51 169 107 75 211 157 120 230 177 136 227 161 117 221 136 90 207 104 64 126 51 32 56 26 15 31 19 14 17 17 13 32 31 27 20 20 20 19 19 19 8 8 8 44 44 44 173 173 173 176 176 176 92 92 92 47 47 47 33 33 33 72 72 72 180 180 180 181 181 181 109 108 108 73 71 83 51 62 108 74 89 148 93 108 155 90 68 72 161 134 126 186 154 149 117 17 11 134 90 86 126 23 18 131 77 72 139 52 48 125 64 58 147 66 60 114 27 20 177 146 140 120 20 15 140 99 94 170 131 128 61 47 42 44 56 95 79 92 152 51 58 99 6 5 10 0 0 0 0 0 1 0 0 0 0 0 0 0 0 0 0 0 0 
0 0 0 0 0 0 0 0 0 0 0 0 0 0 0 0 0 0 0 0 0 0 0 0 0 0 0 77 77 77 119 119 119 88 88 88 50 49 49 32 33 34 27 22 20 151 94 64 248 196 147 250 214 171 253 230 194 253 230 196 244 206 164 245 211 171 245 225 191 241 208 167 233 178 128 221 142 94 204 109 67 141 60 36 78 32 21 36 20 15 19 17 13 36 33 30 27 27 28 27 27 27 15 15 15 49 49 49 172 172 172 167 167 167 82 82 82 59 59 59 45 45 45 73 73 73 169 169 169 170 170 170 97 96 96 76 75 78 81 83 101 54 64 108 90 108 159 92 74 81 138 99 94 155 117 113 133 45 40 130 84 79 137 63 59 129 76 71 139 56 52 126 65 60 147 66 64 110 24 19 150 101 99 112 0 0 113 42 38 166 135 132 62 50 44 47 59 100 46 53 90 4 5 8 0 0 0 0 0 0 0 0 0 0 0 0 0 0 0 0 0 0 0 0 0 
0 0 0 0 0 0 0 0 0 0 0 0 0 0 0 0 0 0 0 0 0 0 0 0 2 2 2 61 61 61 53 53 53 37 37 37 33 33 33 26 28 29 36 26 23 187 130 91 243 194 146 238 199 155 241 216 180 241 216 179 242 219 180 243 216 176 241 211 170 239 199 154 232 169 117 222 143 94 203 112 69 141 61 37 79 34 23 27 18 13 18 18 14 39 38 36 31 31 31 34 34 34 23 23 23 37 37 37 138 138 138 168 168 168 81 81 81 55 55 55 57 57 57 91 91 91 169 169 169 179 179 179 95 95 95 52 52 51 67 66 65 76 74 86 82 92 123 89 69 73 130 78 71 146 89 84 122 49 43 158 128 123 135 40 34 124 61 56 136 45 39 120 51 45 164 111 108 114 18 12 145 106 101 132 33 28 124 45 41 155 93 87 55 32 29 15 22 39 4 3 6 0 0 0 0 0 1 0 0 0 0 0 0 0 0 0 0 0 0 0 0 0 0 0 0 
0 0 0 0 0 0 0 0 0 0 0 0 0 0 0 0 0 0 1 1 1 2 2 2 5 5 5 74 74 74 82 82 82 36 36 36 27 27 27 27 29 29 24 15 12 186 126 90 239 185 137 240 196 152 241 212 171 241 214 176 242 215 177 245 214 176 241 208 167 237 197 151 230 166 117 220 141 91 205 115 72 142 63 41 66 30 21 23 19 14 25 24 18 79 78 77 54 54 54 38 38 38 33 33 33 22 22 22 20 20 20 55 55 55 35 35 35 102 102 102 161 161 161 138 138 138 74 74 74 110 110 110 71 71 71 99 98 99 123 123 123 147 146 145 154 157 169 91 69 69 93 5 1 103 17 12 101 12 8 100 18 14 102 11 7 98 13 8 101 11 5 95 10 7 96 20 16 99 10 5 94 11 9 100 15 10 96 18 14 98 11 8 53 27 26 2 7 8 0 0 0 0 0 0 0 0 0 0 0 0 0 0 0 0 0 0 0 0 0 0 0 0 0 0 0 
0 0 0 0 0 0 0 0 0 0 0 0 0 0 0 0 0 0 0 0 0 40 40 40 36 36 36 65 65 65 103 103 103 66 66 66 41 40 40 37 39 39 21 13 12 179 117 82 241 191 142 243 206 158 248 214 168 246 219 177 242 214 175 243 209 169 241 205 161 239 194 148 230 162 115 219 139 91 211 120 76 160 72 45 77 32 23 27 21 15 35 34 29 109 111 111 62 63 63 43 43 43 36 36 36 29 29 29 24 24 24 16 16 16 6 6 6 119 119 119 176 176 176 128 128 128 46 46 46 32 32 32 31 31 31 144 145 144 164 164 164 155 154 154 168 172 174 95 75 76 66 0 0 75 12 9 72 9 7 74 6 4 75 8 5 78 8 4 76 7 4 69 5 3 66 1 0 71 4 2 74 5 2 74 5 3 76 6 3 68 2 0 67 46 42 65 71 71 33 32 32 8 8 8 0 0 0 0 0 0 0 0 0 0 0 0 0 0 0 0 0 0 0 0 0 
0 0 0 0 0 0 0 0 0 0 0 0 2 2 2 7 7 7 8 8 8 30 30 30 30 30 30 59 59 59 88 88 88 60 60 60 41 41 41 41 42 41 15 13 14 164 105 76 215 142 101 207 142 101 207 143 104 218 157 113 237 191 145 240 200 156 225 164 119 180 107 70 158 83 51 172 94 60 159 78 47 102 42 28 58 26 19 28 20 13 34 28 22 98 81 78 61 61 61 45 46 45 40 40 40 32 32 32 30 30 30 28 28 28 14 14 14 114 114 114 171 171 171 116 116 116 46 46 46 39 39 39 35 35 35 137 138 137 154 154 154 149 150 149 165 166 167 92 84 85 27 0 0 39 12 11 37 10 9 35 9 8 29 8 8 20 3 6 21 4 6 26 10 12 24 12 13 33 12 12 32 8 6 28 5 6 29 7 8 22 0 0 52 48 47 107 108 112 122 122 122 130 130 130 33 33 33 0 0 0 1 1 1 0 0 0 0 0 0 0 0 0 0 0 0 
0 0 0 0 0 0 0 0 0 0 0 0 5 5 5 46 46 46 36 36 36 19 19 19 13 13 13 56 56 56 86 86 86 61 61 61 38 38 37 36 37 38 30 22 22 159 95 69 195 114 74 184 114 78 145 79 50 179 100 62 227 165 118 239 192 145 200 120 77 180 105 71 159 101 76 138 76 47 165 81 50 131 64 37 88 39 26 38 21 15 21 17 12 97 60 49 87 77 74 37 39 40 38 38 37 38 38 38 34 34 34 33 33 33 14 14 14 114 114 114 170 170 170 109 109 109 41 41 41 35 35 35 33 33 33 139 139 139 154 154 154 154 154 154 160 159 159 145 147 149 80 85 88 69 74 77 69 74 76 79 84 89 133 107 94 177 129 106 155 113 98 131 80 73 137 74 66 99 64 62 81 88 96 102 106 105 102 106 107 107 111 112 89 90 90 98 97 99 123 123 122 144 144 144 38 38 38 0 0 0 1 1 1 0 0 0 0 0 0 0 0 0 0 0 0 
0 0 0 0 0 0 0 0 0 0 0 0 5 5 5 60 60 60 65 65 65 53 53 53 30 30 30 54 54 54 85 85 85 62 62 62 47 46 46 27 33 34 83 48 42 212 132 96 218 154 111 204 141 106 189 138 105 224 177 140 239 193 149 235 183 138 209 129 84 234 189 148 229 190 153 202 144 103 210 143 101 224 149 105 155 74 47 43 22 15 27 20 12 97 67 58 44 40 39 55 56 57 135 134 134 84 84 84 39 39 39 37 37 37 16 16 16 113 113 113 168 168 168 99 99 99 38 38 38 34 34 34 36 36 36 138 138 138 157 157 157 140 140 140 141 142 142 173 173 173 101 100 99 65 64 63 69 68 68 109 109 110 128 109 109 187 104 73 255 135 82 175 35 9 109 15 10 84 68 79 118 118 126 129 127 126 124 123 123 123 122 122 90 89 89 96 95 95 117 117 117 129 129 129 25 25 25 0 0 0 1 1 1 0 0 0 0 0 0 0 0 0 0 0 0 
0 0 0 0 0 0 0 0 0 0 0 0 3 3 3 66 66 66 75 75 75 71 71 71 65 65 65 69 69 69 82 82 82 66 66 66 59 58 58 47 49 50 47 34 31 220 152 118 233 186 144 240 202 159 247 211 173 243 209 171 237 187 138 232 170 125 208 116 69 228 168 121 239 206 164 237 195 149 233 182 136 217 140 100 124 56 33 33 23 13 42 32 23 106 86 80 0 0 0 68 68 68 173 173 173 84 84 84 41 41 41 36 36 36 16 16 16 112 112 112 164 164 164 88 88 88 37 37 37 35 35 35 37 37 37 136 136 136 161 161 161 106 106 106 45 45 45 83 83 83 75 75 75 112 112 113 129 129 129 140 139 138 143 147 150 99 104 113 122 70 58 94 39 34 81 88 96 119 123 124 90 90 88 75 75 75 66 66 66 61 62 61 80 81 81 104 104 104 120 120 120 133 133 133 34 34 34 0 0 0 1 1 1 0 0 0 0 0 0 0 0 0 0 0 0 
0 0 0 0 0 0 1 1 1 7 7 7 10 10 10 66 66 66 80 80 80 78 78 78 75 75 75 76 76 76 82 82 82 67 67 67 61 61 61 62 61 61 7 9 12 200 150 123 234 176 131 238 200 160 242 207 170 240 197 155 238 181 133 231 162 115 201 107 61 221 151 103 237 192 146 234 185 144 229 163 119 179 91 58 69 32 18 28 22 13 36 30 24 40 38 37 0 0 0 67 67 67 157 157 157 73 73 73 39 39 39 32 32 32 15 15 15 115 115 115 161 161 161 81 81 81 39 39 39 39 39 39 39 39 39 135 135 135 159 159 159 102 102 102 34 34 34 23 23 23 49 49 49 144 144 144 140 140 140 138 138 138 142 142 142 129 129 127 76 81 87 85 91 96 113 113 112 92 92 91 23 23 23 29 29 29 38 38 38 55 55 55 73 73 73 93 93 93 113 113 113 133 133 133 37 37 37 0 0 0 2 2 2 1 1 1 0 0 0 0 0 0 0 0 0 
0 0 0 0 0 0 1 1 1 38 38 38 33 33 33 64 64 64 83 83 83 81 81 81 79 79 79 80 80 80 83 83 83 69 69 69 61 61 61 73 73 72 0 0 0 110 86 74 243 175 130 235 186 142 243 207 165 238 187 145 233 172 128 230 168 124 180 85 44 183 108 69 234 185 139 232 177 131 219 140 94 151 67 38 47 26 13 38 35 29 22 20 20 0 0 0 0 0 0 67 66 66 153 153 153 64 64 64 36 36 36 29 29 29 12 12 12 95 95 95 159 159 159 79 79 79 37 37 37 37 37 37 52 52 52 135 135 135 156 156 156 97 97 97 35 35 35 32 32 32 53 53 53 137 137 137 135 135 135 136 136 136 141 141 141 119 119 119 89 88 86 96 94 93 98 98 98 92 92 92 69 69 70 91 91 91 105 105 105 115 115 115 120 120 120 123 123 123 126 126 126 121 121 121 59 59 59 19 19 19 1 1 1 0 0 0 0 0 0 0 0 0 0 0 0 
0 0 0 0 0 0 0 0 0 50 50 50 69 69 69 79 79 79 85 85 85 84 84 84 87 87 87 81 81 81 85 85 85 68 68 68 22 22 22 23 22 22 7 7 6 11 11 13 168 116 88 242 184 134 241 205 161 239 193 150 217 142 97 179 102 66 136 69 37 189 124 85 229 179 131 230 166 117 206 119 73 145 60 32 51 27 16 33 31 29 12 11 12 8 8 7 0 0 0 65 65 65 150 150 150 62 62 62 32 32 32 24 24 24 17 17 17 12 12 12 45 45 45 40 40 40 56 56 56 111 111 111 125 125 125 139 139 139 151 151 151 91 91 91 34 34 34 29 29 29 53 53 53 137 137 137 133 133 133 134 134 134 140 140 140 116 116 116 84 84 84 91 91 91 91 91 91 97 97 97 108 108 107 107 107 107 103 103 103 100 100 100 103 103 103 107 107 107 117 117 117 105 105 105 77 77 77 92 92 92 93 93 93 27 27 27 0 0 0 1 1 1 0 0 0 
0 0 0 0 0 0 1 1 1 42 42 42 51 51 51 45 45 45 36 36 36 34 34 34 64 64 64 85 85 85 90 90 90 68 68 68 6 6 6 8 8 8 16 15 15 0 1 2 63 43 33 240 175 132 241 200 153 245 208 162 245 202 156 236 188 140 236 176 124 241 181 127 233 168 118 226 151 101 206 113 68 140 55 31 45 24 13 27 25 19 7 7 8 6 6 6 0 0 0 62 62 62 148 148 148 59 59 59 29 29 29 22 22 22 15 15 15 11 11 11 4 4 4 0 0 0 65 65 65 148 148 148 136 136 136 137 137 137 149 149 149 84 84 84 32 32 32 29 29 29 53 53 53 135 135 135 131 131 131 133 133 133 139 139 139 113 113 113 82 82 82 88 88 88 88 88 88 88 88 88 88 88 88 89 89 89 91 91 91 94 94 94 98 98 98 101 101 101 111 111 111 100 100 100 101 101 101 127 127 127 143 143 143 42 42 42 0 0 0 1 1 1 0 0 0 
0 0 0 0 0 0 8 8 8 32 32 32 16 16 16 12 12 12 14 14 14 16 16 16 14 14 14 34 34 34 72 72 72 79 79 79 15 15 15 17 17 17 22 22 22 15 15 16 18 14 15 204 147 111 245 193 145 235 180 136 230 168 126 231 169 127 222 147 103 208 119 74 213 137 89 225 149 99 194 95 56 107 40 22 34 19 9 22 17 11 12 11 9 14 13 13 0 0 0 65 65 65 149 149 149 57 57 57 27 27 27 19 19 19 13 13 13 9 9 9 11 11 11 0 0 0 68 68 68 147 147 147 131 131 131 133 133 133 146 146 146 78 78 78 32 32 32 27 27 27 52 52 52 132 132 132 129 129 129 131 131 131 139 139 139 112 112 112 81 81 81 88 88 88 88 88 88 88 88 88 87 87 87 88 88 88 89 89 89 92 92 92 95 95 95 97 97 97 107 107 107 77 77 77 59 59 59 85 85 85 114 114 114 33 33 33 0 0 0 1 1 1 0 0 0 
0 0 0 0 0 0 7 7 7 54 54 54 50 50 50 31 31 31 17 17 17 14 14 14 16 16 16 14 14 14 13 13 13 35 35 35 18 18 18 21 21 21 33 33 33 45 44 44 0 0 0 104 76 60 254 191 139 231 169 121 215 126 87 210 118 85 201 101 70 198 95 57 223 152 103 221 134 90 155 62 34 66 27 13 26 16 8 32 21 13 72 57 45 40 34 28 0 0 0 45 45 44 135 135 135 62 62 62 24 24 24 16 16 16 11 11 11 7 7 7 5 5 5 0 0 0 25 25 25 93 93 93 131 131 131 143 143 143 145 145 145 72 72 72 31 31 31 25 25 25 55 55 55 135 135 135 125 125 125 128 128 128 137 137 137 111 111 111 81 81 81 87 87 87 87 87 87 88 88 88 88 88 88 93 93 93 96 96 96 98 98 98 99 99 99 97 97 97 100 100 100 97 97 97 107 107 107 121 121 121 129 129 129 32 32 32 0 0 0 1 1 1 0 0 0 
1 1 1 0 0 0 5 5 5 62 62 62 66 66 66 56 56 56 44 44 44 30 30 30 40 40 40 63 63 63 10 10 10 8 8 8 16 16 16 23 23 23 42 42 42 51 51 51 2 2 1 6 5 6 175 128 96 253 194 140 234 171 119 225 160 115 222 158 113 229 159 105 230 148 94 190 93 55 100 38 19 45 21 10 57 22 4 166 128 105 168 139 123 32 23 13 12 13 10 0 0 0 19 19 19 30 30 30 12 12 12 5 5 5 2 2 2 0 0 0 0 0 0 0 0 0 0 0 0 0 0 0 24 24 24 77 77 77 132 132 132 70 70 70 27 27 27 20 20 20 38 38 38 119 119 119 134 134 134 131 131 131 134 134 134 108 108 108 83 83 83 92 92 92 93 93 93 93 93 93 87 87 87 78 78 78 64 64 64 56 56 56 76 76 76 94 94 94 98 98 98 106 106 106 111 111 111 112 112 112 117 117 117 29 29 29 0 0 0 1 1 1 0 0 0 
1 1 1 6 6 6 14 14 14 65 65 65 74 74 74 68 68 68 64 64 64 51 51 51 48 48 48 68 68 68 11 11 11 12 12 12 18 18 18 25 25 25 39 39 39 37 38 38 2 1 1 0 0 0 19 13 12 193 140 105 249 190 139 248 205 160 250 201 152 238 158 107 203 108 64 133 58 32 68 26 11 89 47 22 202 154 118 238 207 187 79 56 39 20 15 6 26 22 16 5 5 5 0 0 0 0 0 0 0 0 0 0 0 0 0 0 0 0 0 0 0 0 0 0 0 0 2 2 2 2 2 2 0 0 0 0 0 0 16 16 16 21 21 21 4 4 4 2 2 2 0 0 0 11 11 11 56 56 56 104 104 104 138 138 138 111 111 111 75 75 75 70 70 70 55 55 55 41 41 41 28 28 28 19 19 19 12 12 12 10 10 10 17 17 17 51 51 51 97 97 97 98 98 98 97 97 97 105 105 105 108 108 108 20 20 20 0 0 0 1 1 1 0 0 0 
3 3 3 34 34 34 27 27 27 65 65 65 80 80 80 75 75 75 74 74 74 69 69 69 43 43 43 49 49 49 10 10 10 12 12 12 18 18 18 25 25 25 37 37 37 37 37 37 0 0 0 4 3 3 0 0 0 88 57 45 236 150 106 200 113 70 196 103 61 167 77 41 112 45 23 75 28 13 101 55 27 212 173 136 255 249 236 169 147 134 30 16 3 20 17 11 20 17 11 12 12 8 0 0 0 1 1 1 0 0 0 0 0 0 0 0 0 0 0 0 0 0 0 0 0 0 0 0 0 0 0 0 2 2 2 3 3 3 0 0 0 0 0 0 0 0 0 0 0 0 1 1 1 0 0 0 0 0 0 2 2 2 41 41 41 77 77 77 28 28 28 13 13 13 14 14 14 8 8 8 12 12 12 25 25 25 42 42 42 63 63 63 83 83 83 95 95 95 105 105 105 97 97 97 95 95 95 100 100 100 102 102 102 12 12 12 0 0 0 1 1 1 0 0 0 
1 1 1 46 46 46 53 53 53 70 70 70 80 80 80 77 77 77 77 77 77 64 64 64 37 37 37 44 44 44 12 12 12 12 12 12 15 15 15 17 17 17 19 19 19 14 14 14 0 0 0 3 2 1 0 0 0 134 117 114 242 169 126 203 134 90 155 95 62 120 68 42 109 60 33 140 90 56 220 190 159 250 243 234 234 222 215 85 68 52 18 11 3 15 12 8 10 9 4 11 9 5 9 8 5 2 1 1 0 0 0 0 0 0 0 0 0 0 0 0 2 2 2 0 0 0 31 31 31 28 28 28 0 0 0 0 0 0 1 1 1 2 2 2 1 1 1 0 0 0 0 0 0 1 1 1 3 3 3 1 1 1 0 0 0 3 3 3 2 2 2 1 1 1 17 17 17 60 60 60 81 81 81 95 95 95 100 100 100 97 97 97 91 91 91 80 80 80 82 82 82 98 98 98 93 93 93 97 97 97 98 98 98 9 9 9 0 0 0 0 0 0 0 0 0 
0 0 0 53 53 53 70 70 70 73 73 73 79 79 79 76 76 76 94 94 94 62 62 62 30 30 30 45 45 45 8 8 8 3 3 3 2 2 2 0 0 0 0 0 0 0 0 0 0 0 0 2 1 1 0 0 0 157 142 140 236 164 123 238 173 122 243 190 140 240 185 131 243 197 150 250 233 211 246 242 235 254 248 244 169 151 137 27 16 2 17 13 7 12 9 5 10 8 4 6 6 3 9 8 4 11 10 5 10 11 6 8 9 6 6 6 6 4 4 4 7 7 7 0 0 0 66 66 66 130 130 130 82 82 82 30 30 30 0 0 0 0 0 0 0 0 0 0 0 0 7 7 7 2 2 2 0 0 0 2 2 2 3 3 3 1 1 1 1 1 1 0 0 0 17 17 17 87 87 87 87 87 87 81 81 81 77 77 77 73 73 73 71 71 71 66 66 66 58 58 58 83 83 83 96 96 96 98 98 98 93 93 93 7 7 7 0 0 0 0 0 0 0 0 0 
0 0 0 52 52 52 78 78 78 75 75 75 80 80 80 73 73 73 110 110 110 96 96 96 23 23 23 44 44 44 6 6 6 0 0 0 0 0 0 0 0 0 0 0 0 1 1 1 0 0 0 3 3 3 0 0 0 81 80 79 241 194 166 233 173 124 236 177 127 242 210 175 247 242 232 243 241 237 243 241 235 236 224 218 80 63 49 16 11 1 13 11 5 12 8 4 9 5 2 5 4 2 5 5 3 6 7 2 8 9 4 14 16 9 16 17 12 9 9 8 6 5 6 0 0 0 59 59 59 127 127 126 127 127 127 128 128 128 89 89 89 21 21 21 22 22 22 15 15 15 61 61 61 90 90 90 33 33 33 2 2 2 0 0 0 0 0 0 1 1 1 0 0 0 15 15 15 68 68 68 72 72 72 72 72 72 73 73 73 72 72 72 69 69 69 62 62 62 44 44 44 25 25 25 43 43 43 79 79 79 83 83 83 2 2 2 0 0 0 1 1 1 0 0 0 
0 0 0 64 64 66 83 83 83 76 76 76 81 81 81 73 73 73 107 107 107 100 100 100 7 7 7 14 14 14 2 2 2 0 0 0 0 0 0 5 5 5 12 12 12 0 0 0 0 0 0 2 2 2 0 0 0 42 40 37 230 225 216 248 230 206 246 230 209 249 246 241 247 244 240 242 238 232 252 248 241 163 145 132 28 16 4 17 13 6 12 8 5 12 8 5 8 6 2 5 5 1 5 6 1 5 6 2 6 7 2 6 7 2 10 11 5 13 14 8 12 12 8 0 0 0 63 63 64 128 128 128 113 113 113 123 123 123 127 127 127 52 52 52 37 37 37 22 22 22 65 65 65 126 126 126 118 118 118 94 94 94 47 47 47 6 6 6 4 4 4 17 17 17 41 41 41 71 71 71 72 72 72 73 73 73 73 73 73 72 72 72 68 68 68 61 61 61 41 41 41 32 32 32 53 53 53 90 90 90 93 93 93 20 20 20 2 2 2 0 0 0 1 1 1 
0 0 0 93 93 95 122 122 122 82 82 82 76 76 76 73 73 73 104 104 104 104 104 104 0 0 0 1 1 1 0 0 0 1 1 1 0 0 0 7 7 7 64 64 64 32 32 32 0 0 0 10 7 5 28 19 11 9 7 3 182 172 159 254 244 230 248 245 241 247 244 239 244 241 235 244 244 239 228 217 208 72 55 38 18 10 3 13 8 4 11 7 4 12 7 5 8 6 3 6 6 2 6 6 1 6 7 2 5 5 3 5 5 2 5 6 1 6 7 2 11 12 6 8 9 3 46 46 43 110 110 110 123 123 124 121 122 122 115 115 115 44 44 44 32 32 32 22 22 22 66 66 66 116 116 116 110 110 110 119 119 119 127 127 127 98 98 98 67 67 67 76 76 76 73 73 73 71 71 71 73 73 73 73 73 73 74 74 74 73 73 73 70 70 70 63 63 63 54 54 54 81 81 81 101 101 101 99 99 99 84 84 84 60 60 60 48 48 48 29 29 28 6 5 5 
0 0 0 92 92 93 157 157 158 128 128 128 101 101 101 79 79 79 97 97 97 110 110 110 0 0 0 2 2 2 2 2 2 3 3 3 6 6 6 14 14 14 33 34 34 42 42 42 9 8 6 14 9 5 20 13 5 25 20 12 191 174 155 243 221 198 247 246 240 248 244 238 241 239 234 253 249 243 156 136 122 25 15 2 17 12 8 10 7 3 10 6 3 7 7 4 7 6 4 6 6 4 6 6 4 5 5 3 5 5 3 5 5 3 5 6 1 6 7 2 5 6 2 9 10 5 9 10 3 23 23 15 74 74 71 121 121 121 120 120 121 39 39 39 31 31 31 21 21 21 65 65 65 116 116 116 109 109 109 111 111 111 116 116 116 109 109 109 75 75 75 72 72 72 68 68 68 72 72 72 74 74 74 75 75 75 75 75 75 74 74 74 71 71 71 67 67 67 62 62 62 66 66 66 70 70 70 72 72 72 56 56 56 59 59 59 102 102 102 115 115 116 23 23 23 
0 0 2 84 84 86 168 168 168 147 147 147 125 125 125 84 84 84 105 105 105 107 107 107 15 15 15 6 6 6 4 4 4 10 10 10 15 15 15 21 21 22 28 27 27 26 23 20 14 9 4 12 8 3 14 7 0 42 39 34 223 204 182 244 230 214 248 245 239 247 243 236 250 249 245 220 209 198 62 45 29 20 13 4 13 9 3 10 6 2 8 7 3 9 8 5 7 6 4 8 7 5 9 9 7 6 6 4 5 5 3 5 5 3 5 6 1 6 7 2 6 7 2 7 8 3 9 9 5 9 9 3 9 8 1 40 40 32 85 86 82 39 39 40 28 28 28 19 19 19 65 65 65 114 114 114 108 108 108 110 110 110 116 116 116 103 103 103 68 68 68 71 71 71 71 71 71 73 73 73 76 76 76 75 75 75 75 75 75 75 75 75 73 73 73 70 70 70 66 66 66 64 64 64 66 66 66 60 60 60 58 58 58 85 85 85 111 111 111 99 99 99 15 14 14 
0 0 0 47 47 47 71 71 71 45 45 45 32 32 32 22 22 22 59 59 59 77 77 77 53 53 53 65 65 65 12 12 12 9 9 9 14 14 14 20 20 18 19 16 11 9 5 2 8 6 2 12 9 5 12 7 0 54 52 46 241 231 214 250 248 243 249 244 239 246 242 236 251 247 241 132 115 101 24 15 1 17 13 6 11 9 4 11 6 3 10 7 4 9 9 4 7 6 4 8 7 5 8 8 6 5 5 3 6 5 2 6 5 1 6 6 2 7 7 3 7 9 4 7 9 3 8 9 4 10 10 6 14 12 8 10 8 3 22 22 11 34 35 31 28 28 29 17 17 17 65 65 65 113 113 113 106 106 106 109 109 109 113 113 113 99 99 99 67 67 67 66 66 66 64 64 64 75 75 75 75 75 75 75 75 75 76 76 76 75 75 75 75 75 75 73 73 73 70 70 70 68 68 68 66 66 66 55 55 55 67 67 67 79 79 79 92 92 92 87 87 87 24 18 17 
5 5 5 33 33 33 18 18 18 16 16 16 33 33 33 38 38 38 5 5 5 0 0 0 46 46 46 89 89 89 30 30 30 5 5 5 15 15 15 18 14 10 7 5 2 7 5 3 9 6 3 9 7 3 15 12 1 91 88 77 251 245 236 251 248 242 249 243 239 254 251 246 212 200 190 52 41 25 20 15 6 14 11 6 13 9 5 10 7 4 11 8 5 8 7 3 7 7 4 7 6 4 5 5 3 5 5 2 7 6 2 8 6 2 9 6 3 11 8 4 9 10 5 8 9 4 10 9 5 10 9 5 11 10 5 11 11 6 13 14 7 28 27 18 30 30 30 18 18 18 64 64 64 109 109 109 104 104 104 107 107 107 112 112 112 101 101 101 49 49 49 21 21 21 43 43 43 79 79 79 74 74 74 75 75 75 75 75 75 76 76 76 76 76 76 74 74 74 73 73 73 70 70 70 66 66 66 55 55 55 71 71 71 80 80 80 88 88 88 83 83 83 22 17 16 
3 3 3 49 49 49 48 48 48 62 62 62 92 92 92 79 79 79 2 2 2 0 0 0 40 40 40 86 86 86 33 33 33 3 4 4 15 13 12 12 9 6 5 4 2 7 6 4 7 6 2 9 7 3 13 9 2 102 98 92 255 251 244 248 245 240 249 245 242 250 241 233 117 101 82 22 17 4 17 14 8 12 10 5 10 7 4 11 7 4 9 7 3 7 6 2 7 8 3 6 7 2 6 5 1 7 6 2 7 7 3 9 6 3 10 7 2 11 8 3 10 9 4 10 9 4 10 8 3 8 8 3 9 7 4 11 11 5 10 11 6 18 19 9 30 32 25 14 14 15 70 70 70 113 113 113 103 103 103 105 105 105 111 111 111 103 103 103 71 71 71 50 50 50 50 50 50 77 77 77 75 75 75 78 78 78 79 79 79 78 78 78 75 75 75 75 75 75 74 74 74 71 71 71 67 67 67 53 53 53 75 75 75 88 88 88 91 91 91 69 69 69 11 8 6 
1 1 1 53 53 53 62 62 62 69 69 69 89 89 89 79 79 79 5 5 5 0 0 0 35 35 35 85 85 85 36 36 36 2 3 3 15 12 11 7 7 3 5 4 2 5 4 2 6 5 2 11 10 4 10 7 0 118 118 106 255 255 248 244 240 235 255 251 249 198 181 165 43 30 11 19 16 9 11 9 5 8 8 3 7 7 3 9 7 3 7 6 2 6 5 1 6 7 2 6 6 2 7 6 2 8 8 3 8 7 3 9 7 3 11 9 4 11 8 3 8 8 2 9 8 3 9 8 3 9 7 2 6 7 2 11 9 4 10 9 5 13 14 4 28 26 17 18 19 20 34 34 34 81 81 81 103 103 103 104 104 104 111 111 111 95 95 95 64 64 64 68 68 68 60 60 60 81 81 81 77 77 77 68 68 68 59 59 59 74 74 74 82 82 82 77 77 77 74 74 74 71 71 71 66 66 66 57 57 57 67 67 67 50 50 50 27 27 27 7 7 8 2 1 1 
1 1 1 53 53 53 70 70 70 66 66 66 71 71 71 58 58 58 8 8 8 0 0 0 33 33 33 84 84 84 39 39 39 0 0 0 14 12 9 5 5 1 4 4 2 4 4 2 7 6 2 12 11 5 9 7 0 142 141 131 255 255 254 243 241 234 251 244 239 114 95 78 23 14 3 15 13 7 8 7 3 8 6 2 6 6 4 6 6 4 6 7 2 6 7 2 6 6 3 6 5 3 5 6 2 7 8 3 7 7 2 8 7 3 9 8 4 8 7 3 8 7 3 7 7 3 8 7 3 7 6 2 7 6 2 9 8 4 9 10 5 11 10 1 30 26 19 31 32 33 31 31 30 38 38 38 69 69 69 102 102 102 108 108 108 92 92 92 51 51 51 57 57 57 44 44 44 43 43 43 27 27 27 16 16 16 14 14 14 24 24 24 48 48 48 71 71 71 76 76 76 71 71 71 64 64 64 63 63 63 31 31 31 0 0 0 1 1 1 0 0 0 0 0 0 
0 0 0 75 75 75 92 92 92 71 71 71 30 30 30 13 13 13 10 10 10 0 0 0 32 32 32 84 84 84 40 40 40 0 0 0 14 10 7 7 4 1 3 3 2 4 4 2 6 6 2 12 11 5 7 4 0 153 152 146 255 255 255 253 252 245 199 186 176 43 33 19 19 15 7 9 8 3 7 6 3 7 6 3 5 5 3 5 5 3 5 6 1 6 7 2 6 6 3 6 6 4 5 5 4 4 4 3 6 6 2 7 6 2 7 6 2 8 6 2 6 7 3 7 7 3 6 7 2 6 6 2 6 7 2 8 8 4 10 9 5 7 8 2 32 32 22 84 83 83 102 103 103 83 83 83 61 61 61 97 97 97 107 107 107 86 86 86 39 39 39 53 53 53 15 15 15 0 0 0 8 8 8 11 11 11 11 11 11 12 12 12 10 10 10 23 23 23 71 71 71 73 73 73 66 66 66 63 63 63 24 24 24 0 0 0 3 3 3 1 1 1 0 0 0 
0 0 0 21 21 21 110 110 110 64 64 64 20 20 20 26 26 26 31 31 31 4 4 4 25 25 25 82 82 82 40 40 40 0 0 0 14 9 7 6 4 2 4 4 2 4 4 2 5 6 2 12 12 6 10 7 1 171 169 161 255 255 254 251 245 240 110 95 82 19 13 2 12 12 7 6 7 3 6 5 4 4 4 2 3 3 1 4 4 2 5 5 2 5 6 2 5 5 3 5 5 3 4 4 2 3 3 2 4 4 2 6 6 2 7 6 2 7 6 2 6 7 2 6 7 2 6 7 3 6 6 4 6 7 3 7 8 3 9 9 5 8 10 5 19 18 10 77 76 74 88 88 89 64 64 64 57 57 57 97 97 97 104 104 104 82 82 82 30 30 30 42 42 42 12 12 12 0 0 0 11 11 11 65 65 65 21 21 21 21 21 21 23 23 23 23 23 23 72 72 72 75 75 75 66 66 66 52 52 52 23 23 23 16 16 16 1 1 1 0 0 0 0 0 0 
0 0 0 5 5 5 72 72 72 54 54 54 18 18 18 22 22 22 38 38 38 42 42 42 36 36 36 80 80 80 44 44 44 11 11 11 18 16 14 5 5 1 4 4 3 5 5 3 5 7 2 11 11 5 15 12 4 183 179 172 255 255 255 197 186 173 40 30 15 22 18 11 9 9 5 4 5 3 5 5 3 4 4 2 3 3 1 4 4 2 5 6 1 3 4 1 4 4 2 6 6 4 4 4 2 3 3 1 4 4 2 5 6 1 6 6 2 6 6 1 7 8 3 8 9 4 9 10 5 7 7 5 5 6 1 7 7 2 9 9 4 8 10 5 16 16 6 54 54 49 65 65 67 51 51 50 59 59 59 98 98 98 101 101 101 79 79 79 24 24 24 35 35 35 10 10 10 0 0 0 13 13 13 78 78 78 32 32 32 30 30 30 26 26 26 25 25 25 60 60 60 59 59 59 47 47 47 32 32 32 30 30 30 100 100 100 79 79 79 21 21 21 0 0 0 
0 0 0 6 6 6 69 69 69 76 76 76 50 50 50 21 21 21 35 35 35 55 55 55 36 36 36 55 55 55 59 59 59 26 26 26 21 22 18 4 4 0 5 4 3 6 5 3 5 5 2 11 9 5 13 11 3 190 189 179 255 255 253 103 89 73 18 12 1 17 15 9 7 8 3 5 5 3 5 6 2 5 5 3 5 5 3 6 6 3 5 5 3 4 4 2 6 6 1 8 7 3 5 5 2 4 4 2 5 6 3 6 7 2 7 7 2 6 6 2 7 8 2 8 9 4 8 8 6 7 7 5 6 7 2 7 8 3 9 10 5 9 10 6 17 18 7 45 45 40 49 48 50 40 40 40 39 39 39 85 85 85 107 107 107 79 79 79 18 18 18 27 27 27 7 7 7 0 0 0 15 15 15 70 70 70 36 36 36 38 38 38 35 35 35 26 26 26 27 27 27 47 47 47 42 42 42 35 35 35 46 46 46 87 87 87 146 146 146 67 67 67 0 0 0 
0 0 0 2 2 2 67 67 67 79 79 79 79 79 79 55 55 55 33 33 33 51 51 51 28 28 28 2 2 2 34 34 34 40 40 40 22 22 19 4 4 1 6 6 4 5 6 3 5 5 2 12 10 6 11 8 2 201 200 195 206 194 184 34 24 12 13 12 6 8 8 4 6 7 3 6 6 3 6 7 3 5 5 4 5 5 4 6 6 4 5 5 3 5 5 3 7 7 3 7 7 3 5 5 2 4 4 2 5 5 3 6 6 2 8 6 2 8 6 2 6 7 2 6 7 2 6 6 4 5 5 3 6 7 2 8 9 4 10 11 6 10 11 6 16 16 8 54 53 51 41 41 42 10 10 10 8 8 8 16 16 16 56 56 56 71 71 71 16 16 16 22 22 22 6 6 6 0 0 0 18 18 18 71 71 71 44 44 44 47 47 47 41 41 41 28 28 28 32 32 32 64 64 64 66 66 66 73 73 73 76 76 76 86 86 86 144 144 144 45 45 45 0 0 0 
0 0 0 13 13 13 53 53 53 57 57 57 47 47 47 44 44 44 34 34 34 44 44 44 33 33 33 0 0 0 9 9 9 40 40 40 17 17 15 4 4 2 6 6 4 5 4 2 5 5 2 8 9 4 15 13 6 196 190 181 108 94 81 11 7 0 9 8 3 6 7 2 6 6 3 5 5 3 5 6 3 5 5 3 4 4 2 4 4 2 5 5 3 6 5 3 6 6 4 6 6 4 5 5 2 5 5 3 5 5 3 8 7 3 8 9 3 7 6 2 6 7 2 7 8 3 6 6 4 6 6 4 7 8 3 9 10 5 9 10 5 10 11 6 16 18 8 54 54 51 88 88 89 64 64 64 24 24 24 11 11 11 7 7 7 17 17 17 15 15 15 18 18 18 4 4 4 0 0 0 21 21 21 80 80 80 52 52 52 55 55 55 47 47 47 27 27 27 44 44 44 72 72 72 78 78 78 79 79 79 70 70 70 106 106 106 134 134 134 29 29 29 0 0 0 
0 0 0 60 60 60 96 96 96 33 33 33 41 41 41 40 40 40 32 32 32 41 41 41 34 34 34 0 0 0 8 8 8 29 29 29 15 14 13 4 4 2 5 6 4 3 4 2 5 4 3 2 3 1 26 21 13 123 104 87 32 26 15 7 8 3 6 7 2 6 5 4 5 5 3 5 5 3 5 5 3 4 4 2 5 5 3 4 4 2 5 5 3 4 4 2 5 5 3 5 5 3 4 4 2 5 5 3 5 5 3 7 6 3 7 7 3 6 7 2 6 7 2 7 8 3 6 6 4 6 6 4 7 8 4 7 8 4 8 9 4 9 10 4 21 23 13 43 44 39 53 53 54 84 84 84 89 89 89 41 41 41 20 20 20 14 14 14 10 10 10 7 7 7 2 2 2 0 0 0 26 26 26 86 86 86 45 45 45 34 34 34 25 25 25 22 22 22 41 41 41 45 45 45 46 46 46 67 67 67 70 70 70 123 123 123 117 117 117 23 23 23 0 0 0 
0 0 0 39 39 39 147 147 147 89 89 89 34 34 34 43 43 43 33 33 33 39 39 39 33 33 33 0 0 0 6 6 6 25 25 25 13 13 11 4 4 2 5 5 3 3 5 2 4 4 2 3 3 2 12 10 4 19 10 5 6 5 2 5 6 2 5 5 3 5 5 3 4 4 2 4 4 2 4 4 2 4 4 2 4 5 2 5 5 3 5 5 3 5 5 3 4 4 2 5 5 3 4 4 2 4 4 2 6 6 3 6 7 2 7 8 3 5 6 2 6 6 3 7 6 5 6 6 3 6 6 3 7 7 5 8 8 6 8 9 6 8 10 5 17 18 8 34 34 30 38 39 40 48 48 48 66 66 66 69 69 69 41 41 41 2 2 2 1 1 1 0 0 0 2 2 2 0 0 0 26 26 26 81 81 81 14 14 14 31 31 31 38 38 38 30 30 30 50 50 50 62 62 62 64 64 64 62 62 62 87 87 87 136 136 136 79 79 79 13 13 13 0 0 0 
0 0 0 20 20 20 110 110 110 103 103 103 31 31 31 43 43 43 31 31 31 37 37 37 33 33 33 0 0 0 5 5 6 17 17 19 8 8 6 5 5 3 5 5 3 4 5 2 4 4 2 5 5 3 4 4 3 3 4 2 4 4 2 4 4 3 5 5 4 4 5 3 5 5 3 5 5 3 4 4 2 4 4 2 5 4 3 5 5 3 5 5 3 5 5 3 5 5 3 5 5 3 4 4 2 5 5 3 6 6 3 6 7 3 6 7 2 6 7 2 6 6 4 6 6 4 6 7 3 6 6 3 7 7 5 7 8 5 8 10 6 9 11 6 14 15 6 23 23 17 31 31 32 41 41 40 45 45 45 51 51 51 36 36 36 0 0 0 0 0 0 11 11 11 5 5 5 5 5 5 12 12 12 23 23 23 20 20 20 61 61 61 76 76 76 65 65 65 74 74 74 73 73 73 67 67 67 55 55 55 50 50 50 37 37 37 2 2 2 0 0 0 0 0 0 
0 0 0 14 14 14 76 76 76 79 79 79 36 36 36 41 41 41 33 33 33 33 33 33 32 32 32 1 1 1 2 2 4 2 2 4 3 3 1 5 6 3 5 5 3 4 4 2 3 5 2 5 5 3 5 5 4 6 5 4 4 5 2 4 4 2 6 5 3 6 5 3 5 4 2 4 5 3 4 5 3 5 4 2 5 5 3 5 5 3 5 5 3 5 5 3 6 6 4 5 5 3 4 4 2 4 6 3 6 6 4 7 7 5 7 8 3 7 8 3 6 7 2 6 7 2 6 6 4 6 6 4 8 8 4 9 11 5 9 10 5 9 10 5 13 14 7 20 20 11 9 9 9 25 25 25 36 36 36 39 39 39 30 30 30 2 2 2 0 0 0 55 55 55 92 92 92 33 33 33 12 12 12 10 10 10 51 51 51 72 72 72 73 73 73 73 73 73 71 71 71 69 69 69 65 65 65 39 39 39 0 0 0 0 0 0 0 0 0 0 0 0 0 0 0 
0 0 0 11 11 11 70 70 70 68 68 68 32 32 32 35 35 35 37 37 37 33 33 33 31 31 31 2 2 2 0 0 0 2 2 2 5 5 3 4 5 2 5 4 2 4 4 2 4 5 3 5 5 3 5 5 2 5 5 3 5 5 3 5 5 3 4 5 2 4 5 2 5 5 4 4 4 3 4 5 2 6 5 3 5 5 3 5 5 3 5 5 3 5 5 3 4 4 2 5 5 3 5 5 3 4 6 3 7 8 6 7 7 5 7 8 3 6 7 2 6 7 2 6 7 2 6 6 4 6 6 4 8 8 3 8 9 4 9 10 5 10 11 5 10 11 4 21 22 11 59 59 58 53 53 54 27 27 27 33 33 33 26 26 26 1 1 1 0 0 0 50 50 50 107 107 107 110 110 110 65 65 65 21 21 21 40 40 40 47 47 47 55 55 55 68 68 68 71 71 71 67 67 67 62 62 62 35 35 35 0 0 0 2 2 2 0 0 0 0 0 0 0 0 0 
0 0 0 0 0 0 28 28 28 67 67 67 26 26 26 24 24 24 33 33 33 50 50 50 45 45 45 1 1 1 0 0 0 2 2 2 6 6 3 5 5 3 5 5 3 5 5 3 5 5 3 5 5 3 4 4 3 4 4 2 5 4 2 4 5 2 3 5 2 4 6 3 5 6 4 4 5 3 5 5 3 5 5 3 5 5 3 5 5 3 6 6 4 5 5 3 5 5 3 5 5 3 5 5 3 4 6 3 7 9 6 7 8 5 7 8 3 6 7 2 7 8 2 6 7 3 7 8 3 7 8 3 8 9 4 8 9 4 9 9 6 11 12 6 9 12 6 18 19 9 76 76 73 62 62 62 22 22 22 27 27 27 20 20 20 0 0 0 0 0 0 50 50 50 74 74 74 84 84 84 87 87 87 55 55 55 40 40 40 51 51 51 53 53 53 60 60 60 70 70 70 66 66 66 60 60 60 31 31 31 0 0 0 1 1 1 0 0 0 0 0 0 0 0 0 
0 0 0 0 0 0 0 0 0 15 15 15 36 36 36 62 62 62 69 69 69 79 79 79 54 54 54 0 0 0 1 1 1 3 3 3 6 6 4 5 5 3 5 5 3 4 4 2 5 5 3 5 5 3 5 5 3 5 5 3 5 5 4 5 5 4 3 5 2 4 6 3 4 6 2 3 6 2 4 4 2 4 4 2 5 5 3 5 5 3 6 6 4 5 5 3 4 5 3 4 4 2 5 6 3 4 6 3 6 7 4 6 6 4 7 7 3 7 9 3 7 8 3 6 7 4 7 7 5 7 7 5 7 8 4 9 10 5 10 10 7 10 10 5 10 12 7 12 14 5 43 44 37 45 45 46 19 19 18 23 23 23 16 16 16 0 0 0 0 0 0 52 52 52 58 58 58 60 60 60 58 58 58 58 58 58 63 63 63 65 65 65 55 55 55 56 56 56 70 70 70 64 64 64 58 58 58 27 27 27 0 0 0 1 1 1 0 0 0 0 0 0 0 0 0 
0 0 0 0 0 0 2 2 2 0 0 0 36 36 36 80 80 80 70 70 70 75 75 75 55 55 55 0 0 0 0 0 0 4 4 4 7 7 5 5 5 3 5 5 3 5 5 3 4 6 3 3 5 2 4 4 2 5 5 3 5 5 3 4 4 2 3 5 2 3 5 2 3 5 2 4 5 2 5 5 3 5 5 3 5 5 3 6 6 4 5 5 3 5 5 3 3 5 2 4 6 3 5 6 3 4 6 3 5 7 4 7 7 5 6 6 4 7 8 3 6 7 2 6 7 3 7 7 5 7 7 4 8 9 4 9 10 5 9 10 5 8 10 5 9 11 6 8 12 3 34 36 29 39 39 40 17 17 16 21 21 21 13 13 13 0 0 0 1 1 1 56 56 56 45 45 45 45 45 45 45 45 45 53 53 53 66 66 66 61 61 61 48 48 48 55 55 55 69 69 69 61 61 61 57 57 57 24 24 24 0 0 0 1 1 1 0 0 0 0 0 0 0 0 0 
0 0 0 0 0 0 1 1 1 0 0 0 28 28 28 75 75 75 69 69 69 73 73 73 60 60 60 1 1 1 0 0 0 4 4 4 6 6 4 6 6 4 6 6 4 5 5 3 4 6 3 4 6 3 5 5 3 5 5 3 5 5 3 5 5 3 3 5 2 3 4 2 5 4 2 5 5 3 5 5 3 5 5 3 5 5 3 5 5 3 5 6 4 4 5 3 4 5 2 4 6 3 4 5 3 3 5 2 4 6 3 6 6 4 6 6 4 7 8 4 7 8 3 7 8 2 9 10 4 8 9 4 7 8 3 8 9 4 8 8 5 7 9 6 7 9 6 8 10 4 19 20 17 11 11 13 7 7 7 18 18 18 12 12 12 0 0 0 0 0 0 60 60 60 39 39 39 35 35 35 35 35 35 50 50 50 63 63 63 59 59 59 45 45 45 54 54 54 68 68 68 60 60 60 54 54 54 21 21 21 0 0 0 1 1 1 0 0 0 0 0 0 0 0 0 
0 0 0 0 0 0 1 1 1 0 0 0 23 23 23 71 71 71 69 69 69 72 72 72 60 60 60 1 1 1 0 0 0 4 4 4 6 6 4 6 6 4 6 7 5 6 6 4 4 6 3 5 7 4 6 6 5 6 6 6 5 5 3 5 5 3 3 4 1 4 4 3 5 4 3 4 4 2 4 4 2 4 4 2 3 5 2 3 6 3 3 6 3 4 4 2 3 5 2 3 5 2 3 5 2 4 6 3 4 6 4 5 6 4 7 7 4 7 8 4 6 7 3 7 7 4 9 10 4 7 8 3 7 7 5 8 8 6 7 9 6 6 8 5 8 8 6 7 8 5 2 3 1 0 0 0 0 0 0 4 4 4 5 5 5 0 0 0 7 7 7 58 58 58 43 43 43 28 28 28 30 30 30 50 50 50 62 62 62 54 54 54 39 39 39 55 55 55 67 67 67 60 60 60 53 53 53 15 15 15 0 0 0 1 1 1 0 0 0 0 0 0 0 0 0 
0 0 0 0 0 0 1 1 1 0 0 0 20 20 20 70 70 70 68 68 68 72 72 72 57 57 57 1 1 1 0 0 0 4 4 4 7 7 5 7 7 5 6 6 4 5 7 4 4 7 3 4 6 3 6 6 5 5 6 4 4 4 2 4 4 2 3 3 2 5 5 3 4 5 2 4 5 2 5 4 2 4 5 3 3 5 3 3 5 2 4 4 2 3 3 1 3 5 2 3 5 2 3 5 3 3 5 4 3 5 3 5 6 3 6 7 2 6 6 4 6 6 3 7 8 5 8 8 5 6 6 3 7 7 5 7 8 6 6 8 5 6 8 5 7 7 5 7 6 4 4 4 3 1 1 2 1 1 0 0 0 0 1 1 1 0 0 0 32 32 32 90 90 90 61 61 61 45 45 45 19 19 19 45 45 45 62 62 62 55 55 55 53 53 53 62 62 62 63 63 63 58 58 58 50 50 50 12 12 12 0 0 0 0 0 0 0 0 0 0 0 0 0 0 0 
0 0 0 0 0 0 0 0 0 0 0 0 8 8 8 60 60 60 71 71 71 71 71 71 58 58 58 5 5 5 3 3 3 3 5 4 8 8 6 8 8 6 5 7 5 4 6 3 5 5 3 6 6 4 5 7 5 4 6 5 5 5 4 4 4 4 4 4 2 5 5 3 6 5 1 6 6 2 4 4 2 3 4 2 3 5 4 3 5 4 4 4 4 3 4 4 3 5 3 3 5 4 4 6 5 3 5 4 3 5 3 5 4 2 6 6 4 6 6 4 6 6 4 7 7 4 7 7 5 5 5 3 6 6 4 6 7 5 7 7 5 6 6 4 6 6 4 6 6 4 3 3 1 0 0 0 0 0 0 0 0 0 1 1 1 0 0 0 25 25 25 84 84 84 66 66 66 70 70 70 56 56 56 55 55 55 67 67 67 66 66 66 68 68 68 65 65 65 60 60 60 60 60 60 55 55 55 13 13 13 0 0 0 0 0 0 0 0 0 0 0 0 0 0 0 
0 0 0 0 0 0 0 0 0 1 1 1 0 0 0 10 10 10 57 57 57 72 72 72 60 60 60 8 7 7 4 5 5 6 7 7 7 7 5 6 6 4 5 7 6 5 7 6 6 6 4 6 6 4 5 7 6 4 6 6 5 5 5 4 4 3 4 4 2 4 4 2 10 6 3 9 5 2 3 4 1 3 3 1 3 5 4 1 3 2 4 4 4 4 5 5 3 5 4 3 5 4 4 5 4 3 5 4 3 5 3 4 4 2 5 5 3 5 5 3 6 6 4 6 6 4 6 6 4 5 5 3 6 6 4 6 6 4 6 6 4 5 5 3 5 5 3 5 5 3 2 2 1 0 0 0 2 2 2 1 1 1 2 2 2 0 0 0 23 23 23 68 68 68 65 65 65 65 65 65 68 68 68 68 68 68 65 65 65 65 65 65 63 63 63 61 61 61 64 64 64 50 50 50 28 28 28 4 4 4 0 0 0 0 0 0 0 0 0 0 0 0 0 0 0 
0 0 0 0 0 0 0 0 0 0 0 0 1 1 1 0 0 0 6 6 6 53 53 53 67 67 67 7 7 7 4 4 4 8 8 8 7 8 8 7 9 8 6 8 7 6 8 7 6 8 6 5 7 6 5 7 6 4 6 5 4 5 4 4 5 3 4 4 3 4 4 4 3 3 1 4 4 2 4 4 3 4 4 3 3 5 4 3 5 4 3 5 4 3 5 4 3 4 3 4 4 4 3 5 4 3 5 4 3 5 4 3 5 2 4 4 2 4 4 2 5 5 3 5 5 3 6 6 4 5 5 3 6 6 4 6 6 4 6 6 3 6 6 4 6 6 4 5 4 2 10 10 9 5 4 4 1 1 1 6 6 6 5 5 5 0 0 0 21 21 21 62 61 61 65 65 65 66 66 66 66 66 66 66 66 66 66 66 66 65 65 65 60 60 60 47 47 47 19 19 19 2 2 2 0 0 0 0 0 0 0 0 0 0 0 0 0 0 0 0 0 0 0 0 0 
0 0 0 0 0 0 0 0 0 0 0 0 0 0 0 1 1 1 0 0 0 4 4 4 41 41 41 10 10 10 1 1 1 3 3 3 5 8 7 5 8 7 5 7 6 5 7 6 5 7 6 6 8 6 5 7 6 5 7 6 4 6 5 5 5 3 5 5 5 4 4 4 3 3 1 4 4 2 5 5 5 4 4 4 3 5 4 3 5 4 3 5 4 2 4 3 3 3 3 3 3 3 3 5 4 3 5 4 3 5 4 4 6 3 5 5 3 4 4 2 5 5 3 5 5 3 6 6 4 6 6 4 5 5 3 5 5 4 6 6 5 6 6 5 7 9 6 0 2 0 33 33 31 75 75 75 29 29 29 0 0 0 5 5 5 6 6 6 11 10 10 40 40 40 67 67 67 65 65 65 65 65 65 65 65 65 65 65 65 63 63 63 57 57 57 31 31 31 0 0 0 0 0 0 1 1 1 0 0 0 0 0 0 0 0 0 0 0 0 0 0 0 0 0 0 
0 0 0 0 0 0 0 0 0 0 0 0 0 0 0 0 0 0 1 1 1 0 0 0 1 1 1 1 1 1 0 0 0 1 2 3 4 8 8 4 8 9 4 7 8 2 6 7 5 7 6 5 7 6 5 7 6 6 8 7 5 5 5 5 5 5 4 4 4 4 4 4 4 3 3 4 4 4 3 5 4 3 5 4 4 4 4 3 5 4 4 6 5 3 5 4 4 4 4 4 4 4 2 4 3 2 4 3 2 4 3 3 5 4 3 5 4 3 5 4 4 4 2 5 5 3 7 6 4 6 7 5 7 7 7 6 6 6 7 8 8 6 8 7 6 9 6 1 3 0 25 25 23 93 93 93 106 106 106 62 62 62 16 14 15 15 13 14 8 6 7 20 21 20 67 67 67 63 63 63 63 63 63 63 63 63 63 63 63 60 60 60 52 52 52 21 21 21 0 0 0 1 1 1 0 0 0 0 0 0 0 0 0 0 0 0 0 0 0 0 0 0 0 0 0 
0 0 0 0 0 0 0 0 0 0 0 0 0 0 0 0 0 0 0 0 0 0 0 0 0 0 0 0 0 0 1 0 0 4 6 8 4 8 10 4 7 8 4 8 9 3 7 8 5 6 8 6 8 9 6 8 7 5 7 6 6 6 6 6 6 6 4 4 4 4 5 5 4 4 4 4 4 4 3 5 4 3 5 4 4 4 4 4 6 5 3 5 4 2 4 3 3 3 4 4 4 4 3 5 4 2 4 3 2 4 3 3 5 4 4 6 5 4 6 5 5 6 5 5 7 5 7 8 5 8 7 6 7 7 7 6 7 6 7 8 7 6 8 7 7 9 6 3 5 2 17 18 16 73 73 74 90 90 90 107 107 107 95 95 95 41 41 41 11 10 10 37 36 37 65 65 65 62 62 62 62 62 62 62 62 62 61 61 61 56 56 56 47 47 47 17 17 17 0 0 0 1 1 1 0 0 0 0 0 0 0 0 0 0 0 0 0 0 0 0 0 0 0 0 0 
0 0 0 0 0 0 0 0 0 0 0 0 0 0 0 1 0 0 2 2 1 0 0 0 1 1 0 1 1 1 0 0 0 5 6 7 6 7 7 5 6 8 4 8 9 3 7 8 5 9 9 5 9 9 6 8 7 7 8 7 7 7 7 7 7 7 6 6 6 5 5 5 4 6 5 3 5 4 4 4 4 2 4 3 3 5 4 4 6 4 3 5 4 3 5 4 3 5 4 3 5 4 3 5 4 3 5 4 3 5 4 4 6 4 5 7 6 5 7 6 4 6 5 4 6 5 6 6 6 8 7 6 7 7 5 7 7 5 8 8 8 8 8 8 8 8 6 6 6 3 17 18 17 69 69 69 75 76 75 81 81 81 76 76 76 43 43 43 26 26 26 44 43 44 63 63 63 61 61 61 63 63 63 61 61 61 58 58 58 57 57 57 54 54 54 18 18 17 0 0 0 1 1 1 0 0 0 0 0 0 0 0 0 0 0 0 0 0 0 0 0 0 0 0 0 
0 0 0 0 0 0 0 0 0 0 0 0 0 0 0 0 0 0 0 0 0 0 0 1 0 0 0 0 0 0 0 0 1 3 4 6 5 7 6 3 5 6 0 4 6 2 7 7 2 6 7 3 7 8 5 7 7 4 5 5 5 6 5 5 5 5 4 4 4 5 5 5 1 3 4 3 5 4 3 4 4 3 5 4 0 2 2 1 3 3 4 5 5 4 6 5 4 6 5 4 6 5 4 6 5 4 5 5 4 6 4 1 2 2 1 3 3 5 7 6 5 6 5 3 5 5 5 7 6 6 7 5 8 8 6 5 5 5 6 6 8 8 8 7 7 7 6 2 3 3 4 5 5 33 33 33 74 73 73 54 54 54 49 49 50 44 43 44 17 16 16 34 34 34 64 64 64 58 58 58 57 58 59 60 60 60 61 61 61 51 51 52 29 29 30 4 4 4 0 0 0 0 0 0 0 0 0 0 0 0 0 0 0 0 0 0 0 0 0 0 0 0 0 0 0 
0 0 0 0 0 0 0 0 0 1 1 0 0 0 1 19 17 12 66 59 37 1 1 1 22 20 13 29 27 18 0 0 0 6 7 7 6 6 7 5 8 8 12 13 11 1 3 4 9 10 10 9 11 11 4 7 6 8 10 8 4 5 5 7 8 7 7 8 6 4 5 4 10 12 9 4 6 5 3 3 5 0 1 4 22 22 15 15 16 10 0 1 2 0 1 2 3 5 5 0 2 2 2 3 3 4 7 4 2 3 4 24 24 15 26 24 13 2 4 5 1 3 4 6 6 4 4 5 4 3 5 5 3 5 6 22 22 14 17 16 13 6 7 6 5 7 6 41 40 24 17 15 9 0 0 0 49 49 51 80 80 81 54 53 54 64 63 66 53 53 53 46 45 46 60 60 60 64 63 59 71 68 61 50 51 53 24 25 23 5 6 6 0 0 0 33 29 18 11 10 6 0 0 2 2 2 4 2 2 2 0 0 0 1 1 1 0 0 0 0 0 0 0 0 0 
0 0 0 0 0 0 0 0 0 1 1 0 0 0 0 27 24 15 145 127 74 3 2 3 49 45 27 122 109 67 0 0 0 74 69 40 37 34 20 21 22 15 127 116 64 0 0 0 87 82 47 58 52 31 6 7 7 93 84 48 0 0 0 77 74 39 57 51 30 12 14 10 99 92 51 3 4 4 5 7 7 0 0 0 73 68 39 50 44 27 15 17 11 79 73 43 0 0 0 64 60 34 45 42 24 0 1 4 0 0 0 85 78 43 102 91 50 0 0 0 87 81 46 14 12 8 49 46 26 77 69 41 0 0 0 119 110 63 41 37 22 1 4 5 2 4 5 100 93 50 36 32 18 15 13 6 111 102 69 56 59 68 118 107 74 141 125 80 45 47 57 113 104 73 78 72 61 66 66 59 153 135 79 20 21 28 80 72 38 84 75 42 0 0 0 133 116 63 16 12 9 43 38 23 73 61 37 0 0 0 2 2 2 1 1 1 0 0 0 0 0 0 0 0 0 
0 0 0 2 2 2 3 3 3 1 1 1 0 0 0 4 4 4 29 25 17 2 1 2 19 18 12 53 47 31 0 0 0 40 37 24 20 19 10 14 16 10 78 70 39 1 2 5 54 50 28 36 31 20 2 5 5 55 50 29 0 1 3 52 48 28 35 33 20 12 13 10 54 48 27 1 2 5 6 7 8 0 0 2 52 48 28 37 33 20 26 28 16 112 103 58 0 0 0 89 83 46 66 62 35 0 0 2 0 1 3 56 52 29 85 78 43 0 0 1 95 86 48 14 12 9 51 47 28 75 65 39 0 1 4 102 95 54 31 29 18 3 5 6 3 5 6 74 69 38 32 29 19 32 29 18 103 93 59 15 17 24 93 84 57 120 107 71 47 48 54 84 77 56 63 61 53 47 47 46 89 77 45 0 0 3 56 48 31 59 51 33 0 0 0 73 64 36 7 6 5 21 18 12 41 33 22 0 0 0 1 1 1 0 0 0 0 0 0 0 0 0 0 0 0 
0 0 0 0 0 0 0 0 0 0 0 0 0 0 0 0 0 0 0 0 0 2 1 1 1 0 1 0 0 0 1 2 2 2 2 3 1 2 3 2 3 3 0 0 0 2 4 4 1 1 2 1 3 3 3 4 5 0 1 2 4 5 5 1 3 2 2 4 4 5 6 5 2 3 5 4 6 7 3 4 6 2 3 5 7 7 8 6 7 6 4 5 5 8 7 8 4 5 6 6 7 5 6 8 7 5 6 5 6 8 5 6 6 6 4 6 6 10 8 6 10 6 6 7 7 5 6 7 6 7 8 8 6 7 8 3 5 5 7 9 9 8 9 9 8 9 9 5 6 7 15 16 15 22 21 24 12 13 15 18 17 17 43 41 44 49 49 53 60 60 59 39 40 41 10 10 10 2 2 2 0 0 0 2 2 1 1 0 1 0 0 1 1 1 2 0 0 0 1 1 1 1 1 2 0 0 0 1 1 2 0 0 0 0 0 0 0 0 0 0 0 0 0 0 0 
0 0 0 61 61 61 87 87 87 21 21 21 28 28 28 87 87 87 6 6 6 0 0 0 1 1 1 2 2 1 0 0 0 3 3 3 3 4 4 3 4 4 9 6 4 10 6 4 4 6 5 4 6 5 4 4 5 5 5 4 3 4 5 4 5 5 4 6 5 5 7 6 5 7 6 3 5 4 3 4 6 2 5 6 2 4 7 3 4 6 4 6 7 4 6 7 5 7 6 4 7 5 4 6 5 4 6 6 4 6 5 4 6 5 7 8 5 11 9 7 7 7 5 6 6 4 6 9 7 5 8 7 6 8 7 6 8 7 7 9 8 7 9 8 7 9 8 5 7 6 9 10 9 15 15 15 14 13 13 13 13 13 49 48 46 56 54 52 54 53 53 33 33 33 0 0 0 0 0 0 2 2 1 0 0 0 1 1 1 1 1 1 0 0 0 2 1 1 0 0 0 0 0 0 1 1 1 0 0 0 0 0 0 0 0 0 0 0 0 0 0 0 0 0 0 
15 15 15 94 94 94 90 90 90 73 73 73 13 13 13 116 116 116 37 37 37 0 0 0 1 1 1 0 0 0 0 0 0 1 1 1 3 3 3 3 3 3 5 4 3 10 6 4 4 6 5 3 5 4 4 4 4 4 4 4 4 5 6 4 5 6 3 5 4 3 5 4 4 5 7 4 5 7 4 6 7 2 6 7 5 6 6 5 7 6 6 8 6 6 8 6 5 7 6 4 6 5 4 6 5 5 7 6 5 7 6 6 8 6 9 9 6 9 9 6 6 7 6 7 7 7 7 9 8 6 8 7 6 8 7 6 8 7 6 8 7 6 8 7 6 8 7 10 12 11 17 17 17 5 5 5 7 7 7 9 9 9 49 49 49 52 52 52 47 47 47 28 28 28 0 0 0 0 0 0 0 0 0 0 0 0 0 0 0 0 0 0 0 0 0 0 0 0 0 0 0 0 0 0 0 0 0 0 0 0 0 0 0 0 0 0 0 0 0 0 0 0 0 0 0 
16 16 16 91 91 91 84 84 84 70 70 70 0 0 0 103 103 103 41 41 41 0 0 0 1 1 1 0 0 0 0 0 0 3 3 3 4 4 4 3 3 3 1 4 3 1 4 3 3 3 3 3 3 3 3 3 3 3 3 3 3 4 3 2 4 3 2 4 3 2 4 3 4 5 5 3 5 6 2 5 4 2 4 3 5 5 5 5 6 5 6 6 6 7 7 7 6 8 7 4 6 5 4 6 5 5 7 6 4 7 6 5 7 6 7 7 7 7 7 5 6 6 6 6 6 6 5 7 6 5 7 6 5 7 6 5 7 6 7 7 7 6 7 6 5 7 6 12 14 13 47 47 47 30 30 30 2 2 2 7 7 7 50 50 50 55 55 55 45 45 45 21 21 21 0 0 0 0 0 0 0 0 0 0 0 0 0 0 0 0 0 0 0 0 0 0 0 0 0 0 0 0 0 0 0 0 0 0 0 0 0 0 0 0 0 0 0 0 0 0 0 0 0 0 0 
4 4 4 103 103 103 149 149 149 105 105 105 65 65 65 116 116 116 22 22 22 0 0 0 1 1 1 0 0 0 0 0 0 3 3 3 4 4 4 3 3 3 1 3 2 1 3 2 2 2 2 2 2 2 3 3 3 3 4 3 3 4 3 2 4 3 2 3 3 5 3 1 9 5 2 5 5 3 2 3 3 2 3 2 3 3 3 3 3 3 4 4 4 4 4 4 4 6 5 6 8 7 4 6 5 3 5 4 4 5 4 5 5 5 5 5 4 5 5 3 4 4 4 4 4 4 3 5 4 3 4 3 4 5 4 5 5 5 5 5 5 5 5 5 4 6 5 14 16 15 21 21 21 14 14 14 0 0 0 5 5 5 44 44 44 31 31 31 11 11 11 1 1 1 0 0 0 0 0 0 0 0 0 0 0 0 0 0 0 0 0 0 0 0 0 0 0 0 0 0 0 0 0 0 0 0 0 0 0 0 0 0 0 0 0 0 0 0 0 0 0 0 0 0 0 
0 0 0 14 13 13 12 12 12 28 28 28 21 21 21 20 20 20 0 0 0 0 0 0 0 0 0 0 0 0 0 0 0 2 2 3 3 3 3 2 2 2 1 1 1 1 1 1 1 1 1 0 0 0 0 1 0 2 3 3 3 3 3 3 4 3 4 4 4 3 3 2 6 4 2 6 5 5 3 3 2 3 3 2 3 3 3 2 4 3 4 4 4 3 3 3 2 3 2 5 7 6 5 7 6 4 6 5 4 4 4 4 4 4 3 4 3 3 3 3 4 4 4 3 3 3 3 3 2 2 2 1 2 1 0 3 3 3 2 2 2 2 2 2 2 2 2 1 1 1 0 0 0 0 0 0 0 0 0 2 2 2 5 5 5 0 0 0 0 0 0 0 0 0 0 0 0 0 0 0 0 0 0 0 0 0 0 0 0 0 0 0 0 0 0 0 0 0 0 0 0 0 0 0 0 0 0 0 0 0 0 0 0 0 0 0 0 0 0 0 0 0 0 0 0 
